HIERARCHY
ROOT reference
{
  OFFSET 0 0 0
  CHANNELS 6 Xposition Yposition Zposition Zrotation Xrotation Yrotation
  JOINT Hips
  {
    OFFSET 352.076 86.5813 226.294
    CHANNELS 3 Zrotation Xrotation Yrotation
    JOINT RightUpLeg
    {
      OFFSET -9.24446 -1.53332 -0.0100408
      CHANNELS 3 Zrotation Xrotation Yrotation
      JOINT RightLeg
      {
        OFFSET 0.0379954 -41.8775 0.0555708
        CHANNELS 3 Zrotation Xrotation Yrotation
        JOINT RightFoot
        {
          OFFSET 0.0737403 -43.7597 -0.208372
          CHANNELS 3 Zrotation Xrotation Yrotation
          End Site
          {
            OFFSET 0 -7.69 17.5
          }
        }
      }
    }
    JOINT LeftUpLeg
    {
      OFFSET 9.31004 -1.65148 -0.0333589
      CHANNELS 3 Zrotation Xrotation Yrotation
      JOINT LeftLeg
      {
        OFFSET 0.0881386 -41.8624 -0.0616493
        CHANNELS 3 Zrotation Xrotation Yrotation
        JOINT LeftFoot
        {
          OFFSET 0.763074 -39.9619 0.249975
          CHANNELS 3 Zrotation Xrotation Yrotation
          End Site
          {
            OFFSET 0 -7.69 17.5
          }
        }
      }
    }
    JOINT Spine
    {
      OFFSET 0.105097 14.2958 0.096313
      CHANNELS 3 Zrotation Xrotation Yrotation
      JOINT Spine1
      {
        OFFSET 0.0609256 9.72986 0.0283835
        CHANNELS 3 Zrotation Xrotation Yrotation
        JOINT Spine2
        {
          OFFSET 0.0349843 10.1145 -0.0203086
          CHANNELS 3 Zrotation Xrotation Yrotation
          JOINT Spine3
          {
            OFFSET 0.0323734 9.71864 0.0196425
            CHANNELS 3 Zrotation Xrotation Yrotation
            JOINT Neck
            {
              OFFSET 0.219168 10.3708 0.0833364
              CHANNELS 3 Zrotation Xrotation Yrotation
              JOINT Head
              {
                OFFSET 0.200748 9.48753 0.0966912
                CHANNELS 3 Zrotation Xrotation Yrotation
                End Site
                {
                  OFFSET 0 15.95 0
                }
              }
            }
            JOINT RightShoulder
            {
              OFFSET -3.14734 6.94135 0.063802
              CHANNELS 3 Zrotation Xrotation Yrotation
              JOINT RightArm
              {
                OFFSET -12.765 0.137663 0.228635
                CHANNELS 3 Zrotation Xrotation Yrotation
                JOINT RightForeArm
                {
                  OFFSET -26.5344 -0.389186 -0.00603507
                  CHANNELS 3 Zrotation Xrotation Yrotation
                  JOINT RightHand
                  {
                    OFFSET -26.1352 -0.0585664 0.0704552
                    CHANNELS 3 Zrotation Xrotation Yrotation
                    JOINT RightHandThumb1
                    {
                      OFFSET -2.48905 0.190105 3.12053
                      CHANNELS 3 Zrotation Xrotation Yrotation
                      JOINT RightHandThumb2
                      {
                        OFFSET -3.68274 0 0
                        CHANNELS 3 Zrotation Xrotation Yrotation
                        JOINT RightHandThumb3
                        {
                          OFFSET -2.55832 0 0
                          CHANNELS 3 Zrotation Xrotation Yrotation
                          End Site
                          {
                            OFFSET -2.194 0 0
                          }
                        }
                      }
                    }
                    JOINT RightInHandIndex
                    {
                      OFFSET -3.22368 0.508421 1.97842
                      CHANNELS 3 Zrotation Xrotation Yrotation
                      JOINT RightHandIndex1
                      {
                        OFFSET -5.21684 -0.091368 0.999158
                        CHANNELS 3 Zrotation Xrotation Yrotation
                        JOINT RightHandIndex2
                        {
                          OFFSET -3.61937 0 0
                          CHANNELS 3 Zrotation Xrotation Yrotation
                          JOINT RightHandIndex3
                          {
                            OFFSET -2.0521 0 0
                            CHANNELS 3 Zrotation Xrotation Yrotation
                            End Site
                            {
                              OFFSET -1.805 0 0
                            }
                          }
                        }
                      }
                    }
                    JOINT RightInHandMiddle
                    {
                      OFFSET -3.38211 0.517263 0.756737
                      CHANNELS 3 Zrotation Xrotation Yrotation
                      JOINT RightHandMiddle1
                      {
                        OFFSET -5.17411 -0.084 0.313895
                        CHANNELS 3 Zrotation Xrotation Yrotation
                        JOINT RightHandMiddle2
                        {
                          OFFSET -3.94947 0 0
                          CHANNELS 3 Zrotation Xrotation Yrotation
                          JOINT RightHandMiddle3
                          {
                            OFFSET -2.47579 0 0
                            CHANNELS 3 Zrotation Xrotation Yrotation
                            End Site
                            {
                              OFFSET -1.975 0 0
                            }
                          }
                        }
                      }
                    }
                    JOINT RightInHandRing
                    {
                      OFFSET -3.36516 0.537895 -0.128947
                      CHANNELS 3 Zrotation Xrotation Yrotation
                      JOINT RightHandRing1
                      {
                        OFFSET -4.63474 -0.022105 -0.478947
                        CHANNELS 3 Zrotation Xrotation Yrotation
                        JOINT RightHandRing2
                        {
                          OFFSET -3.44238 0 0
                          CHANNELS 3 Zrotation Xrotation Yrotation
                          JOINT RightHandRing3
                          {
                            OFFSET -2.3881 0 0
                            CHANNELS 3 Zrotation Xrotation Yrotation
                            End Site
                            {
                              OFFSET -1.857 0 0
                            }
                          }
                        }
                      }
                    }
                    JOINT RightInHandPinky
                    {
                      OFFSET -3.16105 0.469368 -1.20179
                      CHANNELS 3 Zrotation Xrotation Yrotation
                      JOINT RightHandPinky1
                      {
                        OFFSET -4.14105 -0.022105 -1.09053
                        CHANNELS 3 Zrotation Xrotation Yrotation
                        JOINT RightHandPinky2
                        {
                          OFFSET -2.75653 0 0
                          CHANNELS 3 Zrotation Xrotation Yrotation
                          JOINT RightHandPinky3
                          {
                            OFFSET -1.74189 0 0
                            CHANNELS 3 Zrotation Xrotation Yrotation
                            End Site
                            {
                              OFFSET -1.645 0 0
                            }
                          }
                        }
                      }
                    }
                  }
                }
              }
            }
            JOINT LeftShoulder
            {
              OFFSET 3.26179 6.89719 -0.0373062
              CHANNELS 3 Zrotation Xrotation Yrotation
              JOINT LeftArm
              {
                OFFSET 12.4839 0.0196156 -0.0323257
                CHANNELS 3 Zrotation Xrotation Yrotation
                JOINT LeftForeArm
                {
                  OFFSET 26.5039 -0.120667 0.247609
                  CHANNELS 3 Zrotation Xrotation Yrotation
                  JOINT LeftHand
                  {
                    OFFSET 25.9984 -0.032285 0.00286418
                    CHANNELS 3 Zrotation Xrotation Yrotation
                    JOINT LeftHandThumb1
                    {
                      OFFSET 2.48905 0.190105 3.12053
                      CHANNELS 3 Zrotation Xrotation Yrotation
                      JOINT LeftHandThumb2
                      {
                        OFFSET 3.68274 0 0
                        CHANNELS 3 Zrotation Xrotation Yrotation
                        JOINT LeftHandThumb3
                        {
                          OFFSET 2.55832 0 0
                          CHANNELS 3 Zrotation Xrotation Yrotation
                          End Site
                          {
                            OFFSET 2.194 0 0
                          }
                        }
                      }
                    }
                    JOINT LeftInHandIndex
                    {
                      OFFSET 3.22368 0.508421 1.97842
                      CHANNELS 3 Zrotation Xrotation Yrotation
                      JOINT LeftHandIndex1
                      {
                        OFFSET 5.21684 -0.091368 0.999158
                        CHANNELS 3 Zrotation Xrotation Yrotation
                        JOINT LeftHandIndex2
                        {
                          OFFSET 3.61937 0 0
                          CHANNELS 3 Zrotation Xrotation Yrotation
                          JOINT LeftHandIndex3
                          {
                            OFFSET 2.0521 0 0
                            CHANNELS 3 Zrotation Xrotation Yrotation
                            End Site
                            {
                              OFFSET 1.805 0 0
                            }
                          }
                        }
                      }
                    }
                    JOINT LeftInHandMiddle
                    {
                      OFFSET 3.38211 0.517263 0.756737
                      CHANNELS 3 Zrotation Xrotation Yrotation
                      JOINT LeftHandMiddle1
                      {
                        OFFSET 5.17411 -0.084 0.313895
                        CHANNELS 3 Zrotation Xrotation Yrotation
                        JOINT LeftHandMiddle2
                        {
                          OFFSET 3.94947 0 0
                          CHANNELS 3 Zrotation Xrotation Yrotation
                          JOINT LeftHandMiddle3
                          {
                            OFFSET 2.47579 0 0
                            CHANNELS 3 Zrotation Xrotation Yrotation
                            End Site
                            {
                              OFFSET 1.975 0 0
                            }
                          }
                        }
                      }
                    }
                    JOINT LeftInHandRing
                    {
                      OFFSET 3.36516 0.537895 -0.128947
                      CHANNELS 3 Zrotation Xrotation Yrotation
                      JOINT LeftHandRing1
                      {
                        OFFSET 4.63474 -0.022105 -0.478947
                        CHANNELS 3 Zrotation Xrotation Yrotation
                        JOINT LeftHandRing2
                        {
                          OFFSET 3.44238 0 0
                          CHANNELS 3 Zrotation Xrotation Yrotation
                          JOINT LeftHandRing3
                          {
                            OFFSET 2.3881 0 0
                            CHANNELS 3 Zrotation Xrotation Yrotation
                            End Site
                            {
                              OFFSET 1.857 0 0
                            }
                          }
                        }
                      }
                    }
                    JOINT LeftInHandPinky
                    {
                      OFFSET 3.16105 0.469368 -1.20179
                      CHANNELS 3 Zrotation Xrotation Yrotation
                      JOINT LeftHandPinky1
                      {
                        OFFSET 4.14105 -0.022105 -1.09053
                        CHANNELS 3 Zrotation Xrotation Yrotation
                        JOINT LeftHandPinky2
                        {
                          OFFSET 2.75653 0 0
                          CHANNELS 3 Zrotation Xrotation Yrotation
                          JOINT LeftHandPinky3
                          {
                            OFFSET 1.74189 0 0
                            CHANNELS 3 Zrotation Xrotation Yrotation
                            End Site
                            {
                              OFFSET 1.645 0 0
                            }
                          }
                        }
                      }
                    }
                  }
                }
              }
            }
          }
        }
      }
    }
  }
}
MOTION
Frames: 2
Frame Time: 0.00833333
6.000000000000000000e+02 0.000000000000000000e+00 0.000000000000000000e+00 0.000000000000000000e+00 0.000000000000000000e+00 0.000000000000000000e+00 7.741984501611816338e-02 -3.161118110620218802e-03 2.030872113713352578e-01 -4.481586350160947640e-01 -8.654780043274644397e-02 -4.938655912614072774e-01 1.931238414907802611e-02 1.460975119000828271e-01 -1.759861690989989458e-01 3.829965383912029009e-02 -5.049178267755737720e-02 2.189338251709911365e-01 -2.101817239924952119e-01 -1.225121021620776962e-01 -3.844307462445917256e-01 -3.949912892119078131e-03 -3.903140785909063604e-02 1.112675198190921227e-01 -4.852624553008927366e-02 -1.348715540260500903e-02 3.109635872331270937e-02 -5.374359802978118106e-02 2.561941507148146266e-02 4.592112322218194764e-02 -1.360124652723746462e-02 1.222291466965645321e-02 8.396589374145604565e-03 -2.173146553328553221e-02 2.479213134582516215e-02 8.445131249857908487e-03 3.129528290621754328e-04 -1.893418601411825039e-02 -7.696825477998105527e-03 -3.797135456348444543e-02 -6.297537979037977351e-02 1.518545781647796244e-01 3.248754779207104620e-02 -1.809839984361031329e-01 -2.755641194562917229e-01 1.444419913811121337e-01 -1.222634689861540613e-01 -1.656224542847905823e-01 -4.395765248227389566e-01 2.896099810360138194e-01 2.331794359813866846e-01 -8.464766773734977434e-01 -8.809665739836017306e-02 -1.172117470540875672e+00 -2.498760520363636217e-01 1.335934334856660188e-01 -8.350489412467255734e-01 0.000000000000000000e+00 0.000000000000000000e+00 0.000000000000000000e+00 -1.742566407295845844e-15 9.516426598712333787e-16 0.000000000000000000e+00 -1.801330450419763087e-15 -4.400875656415991743e-16 0.000000000000000000e+00 7.505226697597692024e-16 1.263762634958737810e-15 -7.535932766971226989e-16 0.000000000000000000e+00 0.000000000000000000e+00 0.000000000000000000e+00 0.000000000000000000e+00 -2.640290934582902797e-15 -8.996315995913328313e-15 0.000000000000000000e+00 -1.440166685255675830e-15 -2.338361092397142791e-16 7.505226697597692024e-16 1.263762634958737810e-15 -7.535932766971226989e-16 0.000000000000000000e+00 -2.882574073126278522e-15 -1.364249312472791947e-15 0.000000000000000000e+00 -1.330213038687173953e-15 -7.482975352959412486e-15 0.000000000000000000e+00 -1.517581958984023025e-15 -6.906228816120310897e-16 7.505226697597692024e-16 1.263762634958737810e-15 -7.535932766971226989e-16 0.000000000000000000e+00 0.000000000000000000e+00 0.000000000000000000e+00 0.000000000000000000e+00 -4.666017508505140428e-16 -5.794635869291200370e-15 0.000000000000000000e+00 1.396748218250102978e-15 -9.898884565395321471e-16 7.505226697597692024e-16 1.263762634958737810e-15 -7.535932766971226989e-16 0.000000000000000000e+00 0.000000000000000000e+00 0.000000000000000000e+00 0.000000000000000000e+00 2.162276034008487066e-15 1.225896125272178044e-14 0.000000000000000000e+00 -8.080681504454491164e-16 -1.092521625947658290e-16 9.473873122810652983e-03 3.594566709245365643e-02 6.649579792358827068e-02 5.267562996989838542e-02 -3.288331360879067078e-01 -4.087464195791795651e-01 -3.339676456208960365e-01 -6.137049406004975172e-01 -2.853287127989397876e-01 3.002509366238716448e-01 -3.846385047115865041e-01 1.658919286079170718e-01 0.000000000000000000e+00 0.000000000000000000e+00 0.000000000000000000e+00 3.241400967360830340e-15 -2.194323006710631047e-15 0.000000000000000000e+00 -1.830385837495181350e-15 -2.510477981727557351e-15 0.000000000000000000e+00 6.097495790280688097e-16 2.102058785827104788e-15 -3.747076802299544846e-16 0.000000000000000000e+00 0.000000000000000000e+00 0.000000000000000000e+00 0.000000000000000000e+00 -6.573917125081131448e-16 5.318959549445769241e-15 0.000000000000000000e+00 1.020632473839389112e-15 2.098839802572578397e-15 6.097495790280688097e-16 2.102058785827104788e-15 -3.747076802299544846e-16 0.000000000000000000e+00 2.043573307580439495e-16 1.111629153721492771e-15 0.000000000000000000e+00 1.356636290457358645e-15 2.561061134800160667e-15 0.000000000000000000e+00 2.499810303763186236e-15 -7.427656382102589372e-16 6.097495790280688097e-16 2.102058785827104788e-15 -3.747076802299544846e-16 0.000000000000000000e+00 0.000000000000000000e+00 0.000000000000000000e+00 0.000000000000000000e+00 -2.981082413280327379e-16 5.217387057112916504e-15 0.000000000000000000e+00 4.819736507698307737e-16 -1.959196156185089435e-15 6.097495790280688097e-16 2.102058785827104788e-15 -3.747076802299544846e-16 0.000000000000000000e+00 0.000000000000000000e+00 0.000000000000000000e+00 0.000000000000000000e+00 -1.199950704140377853e-15 1.822858341119395701e-15 0.000000000000000000e+00 -3.218822180928327285e-15 9.131576818223163140e-15
6.000000000000000000e+02 0.000000000000000000e+00 0.000000000000000000e+00 0.000000000000000000e+00 0.000000000000000000e+00 0.000000000000000000e+00 7.817274676601952688e-02 1.316983668415624802e-02 2.306774333611314731e-01 -4.558856611562350225e-01 -6.739368410159651823e-02 -5.121141475019983513e-01 2.152746172290073354e-02 1.419882131123443580e-01 -1.460124988358291742e-01 3.390110774658699339e-02 -5.820755263241615685e-02 1.648293667726921929e-01 -2.001052861582685027e-01 -1.300297857112620026e-01 -3.797441928687860790e-01 -5.210581046953908363e-03 -5.749782779954452222e-02 1.095518510327279371e-01 -5.652136371780983742e-02 8.047068696993255749e-03 3.149761236133554170e-03 -5.142179309808489474e-02 2.487225168315126272e-02 4.082246623290260862e-02 -1.262518736855847319e-02 1.198569562744556706e-02 7.465212643564198176e-03 -2.015223576236639322e-02 2.415776118728631475e-02 7.272187429123656149e-03 1.542636507887407702e-03 -1.728340804533285910e-02 -1.037022628508270372e-02 -2.103846258044363496e-02 -4.087989634679436990e-02 1.030459358039979706e-01 4.704250142651270061e-02 -1.819899891040769324e-01 -2.807808383151126908e-01 1.241817888441800050e-01 -1.230394620427070207e-01 -1.158430272227783109e-01 -4.705180153837455470e-01 2.680244118317453572e-01 2.430624580361537002e-01 -8.479810437932392420e-01 -1.471189958067412595e-01 -1.263075687489715992e+00 -2.157827607397290459e-01 6.780393346625486484e-02 -8.097372540993644785e-01 0.000000000000000000e+00 0.000000000000000000e+00 0.000000000000000000e+00 -1.503876907158182289e-15 1.009305457131728427e-15 0.000000000000000000e+00 -1.445166011283263011e-15 -1.850919770248974314e-16 0.000000000000000000e+00 7.176236109576972099e-16 9.944280516950459621e-16 -5.766152345732996735e-16 0.000000000000000000e+00 0.000000000000000000e+00 0.000000000000000000e+00 0.000000000000000000e+00 -2.283650167250221306e-15 -8.138965282880969586e-15 0.000000000000000000e+00 -1.535258097035679203e-15 -5.735385639438512369e-16 7.176236109576972099e-16 9.944280516950459621e-16 -5.766152345732996735e-16 0.000000000000000000e+00 -2.782801386195832988e-15 -1.335755305701010685e-15 0.000000000000000000e+00 -1.218489639117129625e-15 -6.704854132400430493e-15 0.000000000000000000e+00 -1.533135482061617299e-15 -9.014316622129057417e-16 7.176236109576972099e-16 9.944280516950459621e-16 -5.766152345732996735e-16 0.000000000000000000e+00 0.000000000000000000e+00 0.000000000000000000e+00 0.000000000000000000e+00 -3.916778695760124334e-16 -5.312352134588715575e-15 0.000000000000000000e+00 1.092045027790705867e-15 -9.908553651161204618e-16 7.176236109576972099e-16 9.944280516950459621e-16 -5.766152345732996735e-16 0.000000000000000000e+00 0.000000000000000000e+00 0.000000000000000000e+00 0.000000000000000000e+00 2.080420895185476411e-15 1.162080840017816885e-14 0.000000000000000000e+00 -7.800961385419414862e-16 -4.097003757578919151e-16 6.107434171670715096e-03 3.934292598566641735e-02 1.098796420598920770e-01 8.886099479678818969e-02 -3.050528127648234888e-01 -4.223161600497017942e-01 -3.354284116029194740e-01 -6.651580655904805184e-01 -2.426864108221729877e-01 2.767056771538941029e-01 -4.319007543415822048e-01 1.453995540801151232e-01 0.000000000000000000e+00 0.000000000000000000e+00 0.000000000000000000e+00 2.962834952456381871e-15 -1.930951224552378359e-15 0.000000000000000000e+00 -1.731918493072474015e-15 -2.323836489365548511e-15 0.000000000000000000e+00 5.312118552330946605e-16 1.909655870801969710e-15 -3.192961171186114796e-16 0.000000000000000000e+00 0.000000000000000000e+00 0.000000000000000000e+00 0.000000000000000000e+00 -4.903943932700576808e-16 4.670527226046223909e-15 0.000000000000000000e+00 1.116535462864914654e-15 1.616980729946551681e-15 5.312118552330946605e-16 1.909655870801969710e-15 -3.192961171186114796e-16 0.000000000000000000e+00 3.031882859146468131e-16 8.233602880756240909e-16 0.000000000000000000e+00 1.145366637446225449e-15 2.025120063376187066e-15 0.000000000000000000e+00 2.362503791098568623e-15 -7.229804081145624742e-16 5.312118552330946605e-16 1.909655870801969710e-15 -3.192961171186114796e-16 0.000000000000000000e+00 0.000000000000000000e+00 0.000000000000000000e+00 0.000000000000000000e+00 -2.219247109616305450e-16 4.566357866362645099e-15 0.000000000000000000e+00 4.278982308794483514e-16 -1.715746770400196546e-15 5.312118552330946605e-16 1.909655870801969710e-15 -3.192961171186114796e-16 0.000000000000000000e+00 0.000000000000000000e+00 0.000000000000000000e+00 0.000000000000000000e+00 -1.054804433794665593e-15 1.431872797138475719e-15 0.000000000000000000e+00 -2.878091749794802166e-15 7.983462764767237180e-15
